# This file uses centimeters as units for non-parametric coordinates.

mtllib StadieTreSpiralVäg.mtl
g default
v 5.555831 -0.100038 57.042896
v 7.322580 -0.173791 57.072937
v 9.049253 -0.272009 57.073582
v 10.741240 -0.391471 57.082680
v 5.550522 -0.102445 55.844894
v 7.321618 -0.174039 55.886913
v 9.048911 -0.272104 55.888107
v 10.735399 -0.393826 55.905098
v 5.541519 -0.109830 54.629646
v 7.319377 -0.174397 54.699718
v 9.048168 -0.272188 54.702862
v 10.722869 -0.401482 54.740414
v 5.541337 -0.126096 53.382805
v 7.303932 -0.177409 53.491901
v 9.037621 -0.273222 53.525410
v 10.711699 -0.421602 53.606625
v 5.578216 -0.142243 52.132004
v 7.338584 -0.183108 52.276947
v 9.064410 -0.275281 52.371120
v 10.737348 -0.453732 52.476288
v 5.667295 -0.115626 50.853065
v 7.438451 -0.213762 51.045273
v 9.168896 -0.301264 51.223946
v 10.804454 -0.471451 51.393623
v 5.822170 0.015405 49.588642
v 7.591747 -0.122161 49.858257
v 9.304446 -0.241688 50.099037
v 10.933146 -0.388294 50.313004
v 6.025028 0.283689 48.238888
v 7.795489 0.166513 48.673027
v 9.511944 0.025650 48.999596
v 11.050333 -0.224474 49.291676
v 6.345336 0.671348 46.983162
v 8.065088 0.570699 47.490070
v 9.723247 0.368567 47.920525
v 11.288540 0.076515 48.305645
v 6.755520 1.139675 45.602505
v 8.460608 1.030743 46.352135
v 10.107449 0.810742 46.920258
v 11.483713 0.441188 47.354824
v 7.347895 1.681287 44.316986
v 8.932909 1.470417 45.204071
v 10.494620 1.189243 45.912785
v 11.795307 0.879058 46.566616
v 8.236464 2.361553 42.992577
v 9.533427 1.972907 44.194000
v 11.000120 1.655170 45.080437
v 12.104160 1.509680 45.780144
v 9.394546 2.883209 41.796917
v 10.353294 2.580162 43.197540
v 11.598954 2.263829 44.349606
v 12.390104 2.102097 45.278938
v 10.891535 3.229559 40.843452
v 11.400407 2.846785 42.416573
v 12.246268 2.473822 43.819378
v 12.869590 2.493829 44.838120
v 12.497231 3.110705 40.215191
v 12.981249 2.465010 41.782764
v 13.139662 2.208815 43.433250
v 13.301664 2.408468 44.601139
v 14.127733 2.547543 39.907059
v 14.181006 1.895502 41.600998
v 13.860080 1.686147 43.217564
v 13.813155 1.986761 44.537090
v 15.577113 1.619084 39.987709
v 15.226410 0.913817 41.681389
v 14.586058 0.916942 43.282970
v 14.177803 1.199647 44.607059
v 16.807947 0.542789 40.359627
v 16.152256 0.036852 42.033596
v 15.370738 0.039036 43.585815
v 14.706310 0.352082 44.962788
v 17.830301 -0.288940 40.902470
v 17.072250 -0.305216 42.518456
v 16.192619 -0.218910 44.022278
v 15.342796 -0.150748 45.418819
v 18.758142 -0.755596 41.450203
v 17.955620 -0.602374 42.972469
v 17.084970 -0.539484 44.424782
v 16.189651 -0.513813 45.940578
v 19.713585 -1.031230 41.991127
v 18.869963 -0.877514 43.478916
v 18.001163 -0.778682 44.965996
v 17.129007 -0.756918 46.472118
v 20.704258 -1.156899 42.556316
v 19.871599 -0.899721 44.051777
v 19.020647 -0.774895 45.549206
v 18.127188 -0.860407 47.042576
vt 0.000000 0.000000
vt 0.333333 0.000000
vt 0.666667 0.000000
vt 1.000000 0.000000
vt 0.000000 0.047619
vt 0.333333 0.047619
vt 0.666667 0.047619
vt 1.000000 0.047619
vt 0.000000 0.095238
vt 0.333333 0.095238
vt 0.666667 0.095238
vt 1.000000 0.095238
vt 0.000000 0.142857
vt 0.333333 0.142857
vt 0.666667 0.142857
vt 1.000000 0.142857
vt 0.000000 0.190476
vt 0.333333 0.190476
vt 0.666667 0.190476
vt 1.000000 0.190476
vt 0.000000 0.238095
vt 0.333333 0.238095
vt 0.666667 0.238095
vt 1.000000 0.238095
vt 0.000000 0.285714
vt 0.333333 0.285714
vt 0.666667 0.285714
vt 1.000000 0.285714
vt 0.000000 0.333333
vt 0.333333 0.333333
vt 0.666667 0.333333
vt 1.000000 0.333333
vt 0.000000 0.380952
vt 0.333333 0.380952
vt 0.666667 0.380952
vt 1.000000 0.380952
vt 0.000000 0.428571
vt 0.333333 0.428571
vt 0.666667 0.428571
vt 1.000000 0.428571
vt 0.000000 0.476190
vt 0.333333 0.476190
vt 0.666667 0.476190
vt 1.000000 0.476190
vt 0.000000 0.523810
vt 0.333333 0.523810
vt 0.666667 0.523810
vt 1.000000 0.523810
vt 0.000000 0.571429
vt 0.333333 0.571429
vt 0.666667 0.571429
vt 1.000000 0.571429
vt 0.000000 0.619048
vt 0.333333 0.619048
vt 0.666667 0.619048
vt 1.000000 0.619048
vt 0.000000 0.666667
vt 0.333333 0.666667
vt 0.666667 0.666667
vt 1.000000 0.666667
vt 0.000000 0.714286
vt 0.333333 0.714286
vt 0.666667 0.714286
vt 1.000000 0.714286
vt 0.000000 0.761905
vt 0.333333 0.761905
vt 0.666667 0.761905
vt 1.000000 0.761905
vt 0.000000 0.809524
vt 0.333333 0.809524
vt 0.666667 0.809524
vt 1.000000 0.809524
vt 0.000000 0.857143
vt 0.333333 0.857143
vt 0.666667 0.857143
vt 1.000000 0.857143
vt 0.000000 0.904762
vt 0.333333 0.904762
vt 0.666667 0.904762
vt 1.000000 0.904762
vt 0.000000 0.952381
vt 0.333333 0.952381
vt 0.666667 0.952381
vt 1.000000 0.952381
vt 0.000000 1.000000
vt 0.333333 1.000000
vt 0.666667 1.000000
vt 1.000000 1.000000
vn 0.041074 0.999155 -0.001221
vn 0.048843 0.998806 -0.000703
vn 0.048080 0.998843 -0.001275
vn 0.039728 0.999208 -0.002337
vn 0.063903 0.997956 -0.000693
vn 0.064647 0.997907 -0.001324
vn 0.071217 0.997460 -0.001220
vn 0.072847 0.997340 -0.002443
vn 0.045840 0.998943 -0.003527
vn 0.035685 0.999346 -0.005816
vn 0.067255 0.997728 -0.003991
vn 0.078630 0.996881 -0.006710
vn 0.042061 0.999102 -0.005196
vn 0.029829 0.999523 -0.008071
vn 0.072103 0.997376 -0.006499
vn 0.090209 0.995860 -0.011233
vn 0.042887 0.999057 -0.006792
vn 0.033182 0.999444 -0.003208
vn 0.076290 0.997022 -0.011249
vn 0.101697 0.994743 -0.012016
vn 0.049204 0.998068 0.037940
vn 0.046459 0.997691 0.049549
vn 0.073325 0.996903 0.028419
vn 0.096926 0.994810 0.030967
vn 0.041064 0.986407 0.159110
vn 0.039522 0.986131 0.161197
vn 0.063431 0.986514 0.150884
vn 0.088087 0.986079 0.141028
vn 0.015103 0.962816 0.269734
vn 0.001199 0.964750 0.263166
vn 0.058251 0.960118 0.273460
vn 0.092174 0.960555 0.262371
vn -0.018228 0.942639 0.333316
vn -0.043630 0.947607 0.316444
vn 0.047611 0.933054 0.356573
vn 0.094408 0.929378 0.356853
vn -0.038321 0.935269 0.351857
vn -0.071464 0.939306 0.335555
vn 0.032903 0.919347 0.392070
vn 0.075322 0.906402 0.415648
vn -0.061966 0.922099 0.381961
vn -0.089855 0.923816 0.372142
vn -0.030110 0.903347 0.427852
vn -0.023765 0.883578 0.467680
vn -0.111024 0.903157 0.414705
vn -0.116240 0.918975 0.376794
vn -0.148857 0.862243 0.484126
vn -0.208399 0.827566 0.521253
vn -0.102627 0.932555 0.346134
vn -0.093332 0.948447 0.302882
vn -0.169045 0.900014 0.401745
vn -0.308439 0.847505 0.431974
vn 0.104736 0.968383 0.226415
vn 0.118048 0.962678 0.243547
vn 0.090525 0.983215 0.158409
vn -0.066025 0.995274 0.071205
vn 0.353682 0.911710 0.209033
vn 0.311917 0.915085 0.255593
vn 0.399021 0.916354 0.032822
vn 0.366405 0.913339 -0.177647
vn 0.535551 0.796987 0.279279
vn 0.473770 0.822108 0.315721
vn 0.650848 0.750428 0.115127
vn 0.710128 0.698733 -0.086551
vn 0.586016 0.734427 0.342347
vn 0.543233 0.747905 0.381491
vn 0.706020 0.677983 0.204636
vn 0.787419 0.609479 0.092230
vn 0.463909 0.834098 0.298445
vn 0.469221 0.798582 0.376960
vn 0.531878 0.827146 0.181481
vn 0.610556 0.780323 0.135340
vn 0.315919 0.933419 0.170070
vn 0.354203 0.908443 0.221974
vn 0.307518 0.943754 0.121498
vn 0.347776 0.929164 0.125324
vn 0.273309 0.957693 0.090148
vn 0.294512 0.951997 0.083456
vn 0.246898 0.962848 0.109386
vn 0.243468 0.962229 0.121816
vn 0.158371 0.987377 -0.002279
vn 0.185913 0.982437 -0.015928
vn 0.120263 0.991920 0.040388
vn 0.110781 0.991504 0.068178
vn 0.076519 0.995132 -0.062110
vn 0.114683 0.990788 -0.072025
vn 0.033473 0.999412 -0.007417
vn 0.027849 0.998904 0.037623
s 1
g pPlane2
usemtl initialShadingGroup
f 1/1/1 2/2/2 6/6/3 5/5/4
f 2/2/2 3/3/5 7/7/6 6/6/3
f 3/3/5 4/4/7 8/8/8 7/7/6
f 5/5/4 6/6/3 10/10/9 9/9/10
f 6/6/3 7/7/6 11/11/11 10/10/9
f 7/7/6 8/8/8 12/12/12 11/11/11
f 9/9/10 10/10/9 14/14/13 13/13/14
f 10/10/9 11/11/11 15/15/15 14/14/13
f 11/11/11 12/12/12 16/16/16 15/15/15
f 13/13/14 14/14/13 18/18/17 17/17/18
f 14/14/13 15/15/15 19/19/19 18/18/17
f 15/15/15 16/16/16 20/20/20 19/19/19
f 17/17/18 18/18/17 22/22/21 21/21/22
f 18/18/17 19/19/19 23/23/23 22/22/21
f 19/19/19 20/20/20 24/24/24 23/23/23
f 21/21/22 22/22/21 26/26/25 25/25/26
f 22/22/21 23/23/23 27/27/27 26/26/25
f 23/23/23 24/24/24 28/28/28 27/27/27
f 25/25/26 26/26/25 30/30/29 29/29/30
f 26/26/25 27/27/27 31/31/31 30/30/29
f 27/27/27 28/28/28 32/32/32 31/31/31
f 29/29/30 30/30/29 34/34/33 33/33/34
f 30/30/29 31/31/31 35/35/35 34/34/33
f 31/31/31 32/32/32 36/36/36 35/35/35
f 33/33/34 34/34/33 38/38/37 37/37/38
f 34/34/33 35/35/35 39/39/39 38/38/37
f 35/35/35 36/36/36 40/40/40 39/39/39
f 37/37/38 38/38/37 42/42/41 41/41/42
f 38/38/37 39/39/39 43/43/43 42/42/41
f 39/39/39 40/40/40 44/44/44 43/43/43
f 41/41/42 42/42/41 46/46/45 45/45/46
f 42/42/41 43/43/43 47/47/47 46/46/45
f 43/43/43 44/44/44 48/48/48 47/47/47
f 45/45/46 46/46/45 50/50/49 49/49/50
f 46/46/45 47/47/47 51/51/51 50/50/49
f 47/47/47 48/48/48 52/52/52 51/51/51
f 49/49/50 50/50/49 54/54/53 53/53/54
f 50/50/49 51/51/51 55/55/55 54/54/53
f 51/51/51 52/52/52 56/56/56 55/55/55
f 53/53/54 54/54/53 58/58/57 57/57/58
f 54/54/53 55/55/55 59/59/59 58/58/57
f 55/55/55 56/56/56 60/60/60 59/59/59
f 57/57/58 58/58/57 62/62/61 61/61/62
f 58/58/57 59/59/59 63/63/63 62/62/61
f 59/59/59 60/60/60 64/64/64 63/63/63
f 61/61/62 62/62/61 66/66/65 65/65/66
f 62/62/61 63/63/63 67/67/67 66/66/65
f 63/63/63 64/64/64 68/68/68 67/67/67
f 65/65/66 66/66/65 70/70/69 69/69/70
f 66/66/65 67/67/67 71/71/71 70/70/69
f 67/67/67 68/68/68 72/72/72 71/71/71
f 69/69/70 70/70/69 74/74/73 73/73/74
f 70/70/69 71/71/71 75/75/75 74/74/73
f 71/71/71 72/72/72 76/76/76 75/75/75
f 73/73/74 74/74/73 78/78/77 77/77/78
f 74/74/73 75/75/75 79/79/79 78/78/77
f 75/75/75 76/76/76 80/80/80 79/79/79
f 77/77/78 78/78/77 82/82/81 81/81/82
f 78/78/77 79/79/79 83/83/83 82/82/81
f 79/79/79 80/80/80 84/84/84 83/83/83
f 81/81/82 82/82/81 86/86/85 85/85/86
f 82/82/81 83/83/83 87/87/87 86/86/85
f 83/83/83 84/84/84 88/88/88 87/87/87
